<svg height="512pt" viewBox="-77 0 512 512.001" width="512pt" xmlns="http://www.w3.org/2000/svg"><path d="m346.628906 278.15625-48.085937-28.6875c-5.699219-3.171875-13.074219-2.816406-21.140625 1.839844l-126.289063 72.914062c-18.039062 10.414063-32.660156 38.355469-32.660156 62.40625 0 14.433594 5.269531 24.175782 13.378906 27.417969l41.992188 24.703125c2.0625 2.03125 4.476562 3.453125 7.160156 4.210938 5.09375 1.441406 11.160156.492187 17.675781-3.269532l126.289063-72.914062c18.039062-10.414063 32.660156-38.351563 32.660156-62.402344 0-12.953125-4.246094-22.128906-10.980469-26.21875zm0 0" fill="#abb7b7"/><path d="m132.492188 401.925781-47.242188-28.183593c-5.820312-3.773438-13.578125-3.65625-22.105469 1.269531l-30.484375 17.597656c-18.035156 10.414063-32.660156 38.355469-32.660156 62.40625 0 12.875 4.195312 22.019531 10.855469 26.144531l45.046875 26.488282c1.769531 1.605468 3.777344 2.792968 5.976562 3.511718 5.226563 1.71875 11.535156.84375 18.328125-3.078125l30.484375-17.601562c18.035156-10.414063 32.660156-38.355469 32.660156-62.40625 0-12.875-4.195312-22.023438-10.859374-26.148438zm0 0" fill="#abb7b7"/><path d="m110.691406 490.480469-30.484375 17.601562c-18.039062 10.414063-32.660156-.640625-32.660156-24.691406s14.621094-51.992187 32.660156-62.40625l30.484375-17.597656c18.035156-10.414063 32.660156.640625 32.660156 24.691406 0 24.046875-14.625 51.988281-32.660156 62.402344zm0 0" fill="#e9e9e9"/><path d="m324.949219 366.78125-126.292969 72.914062c-18.035156 10.414063-32.660156-.640624-32.660156-24.691406 0-24.050781 14.625-51.992187 32.660156-62.40625l126.292969-72.914062c18.035156-10.414063 32.660156.640625 32.660156 24.691406s-14.621094 51.988281-32.660156 62.40625zm0 0" fill="#e9e9e9"/><path d="m346.628906 154.457031-48.085937-28.683593c-5.699219-3.171876-13.074219-2.816407-21.140625 1.839843l-126.289063 72.914063c-18.039062 10.414062-32.660156 38.351562-32.660156 62.402344 0 14.433593 5.269531 24.179687 13.378906 27.421874l41.992188 24.699219c2.0625 2.03125 4.476562 3.453125 7.160156 4.214844 5.09375 1.4375 11.160156.492187 17.675781-3.269531l126.289063-72.914063c18.039062-10.414062 32.660156-38.355469 32.660156-62.40625 0-12.953125-4.246094-22.128906-10.980469-26.21875zm0 0" fill="#abb7b7"/><path d="m132.492188 278.230469-47.242188-28.183594c-5.820312-3.777344-13.578125-3.65625-22.105469 1.265625l-30.484375 17.601562c-18.035156 10.414063-32.660156 38.351563-32.660156 62.402344 0 12.875 4.195312 22.019532 10.855469 26.148438l45.046875 26.484375c1.769531 1.609375 3.777344 2.792969 5.976562 3.515625 5.226563 1.714844 11.535156.84375 18.328125-3.082032l30.484375-17.597656c18.035156-10.414062 32.660156-38.355468 32.660156-62.40625 0-12.878906-4.195312-22.023437-10.859374-26.148437zm0 0" fill="#abb7b7"/><path d="m110.691406 366.785156-30.484375 17.597656c-18.039062 10.414063-32.660156-.640624-32.660156-24.691406 0-24.050781 14.621094-51.988281 32.660156-62.402344l30.484375-17.601562c18.035156-10.414062 32.660156.640625 32.660156 24.691406 0 24.050782-14.625 51.992188-32.660156 62.40625zm0 0" fill="#e9e9e9"/><path d="m324.949219 243.082031-126.292969 72.914063c-18.035156 10.414062-32.660156-.640625-32.660156-24.691406 0-24.050782 14.625-51.988282 32.660156-62.402344l126.292969-72.914063c18.035156-10.414062 32.660156.636719 32.660156 24.6875s-14.621094 51.992188-32.660156 62.40625zm0 0" fill="#e9e9e9"/><path d="m346.628906 30.761719-48.085937-28.6875c-5.699219-3.171875-13.074219-2.816407-21.140625 1.839843l-126.289063 72.914063c-18.039062 10.414063-32.660156 38.351563-32.660156 62.402344 0 14.433593 5.269531 24.179687 13.378906 27.421875l41.992188 24.699218c2.0625 2.03125 4.476562 3.453126 7.160156 4.214844 5.09375 1.4375 11.160156.492188 17.675781-3.269531l126.289063-72.914063c18.039062-10.414062 32.660156-38.355468 32.660156-62.40625 0-12.953124-4.246094-22.125-10.980469-26.214843zm0 0" fill="#abb7b7"/><path d="m132.492188 154.53125-47.242188-28.183594c-5.820312-3.777344-13.578125-3.65625-22.105469 1.265625l-30.484375 17.601563c-18.035156 10.414062-32.660156 38.355468-32.660156 62.40625 0 12.871094 4.195312 22.019531 10.855469 26.144531l45.046875 26.484375c1.769531 1.609375 3.777344 2.792969 5.976562 3.515625 5.226563 1.71875 11.535156.84375 18.328125-3.078125l30.484375-17.601562c18.035156-10.414063 32.660156-38.355469 32.660156-62.40625 0-12.878907-4.195312-22.023438-10.859374-26.148438zm0 0" fill="#abb7b7"/><g fill="#e9e9e9"><path d="m110.691406 243.085938-30.484375 17.601562c-18.039062 10.414062-32.660156-.640625-32.660156-24.691406 0-24.050782 14.621094-51.992188 32.660156-62.40625l30.484375-17.601563c18.035156-10.414062 32.660156.640625 32.660156 24.691407 0 24.050781-14.625 51.992187-32.660156 62.40625zm0 0"/><path d="m324.949219 119.382812-126.292969 72.914063c-18.035156 10.414063-32.660156-.640625-32.660156-24.691406s14.625-51.988281 32.660156-62.402344l126.292969-72.914063c18.035156-10.414062 32.660156.636719 32.660156 24.691407 0 24.050781-14.621094 51.988281-32.660156 62.402343zm0 0"/></g></svg>