<svg height="511pt" viewBox="-87 0 511 511.99967" width="511pt" xmlns="http://www.w3.org/2000/svg"><path d="m322.128906 273.625-52.019531-39.324219 52.019531-99.390625c19.230469-36.742187 19.230469-78.316406 0-92.855468-1.648437-1.246094-3.390625-2.234376-5.199218-3.011719l-58.6875-34.003907c-19.230469-14.539062-50.410157 3.460938-69.640626 40.207032l-48.28125 92.25-55.796874-32.214844c-1.648438-1.242188-3.390626-2.230469-5.203126-3.003906l-.082031-.046875-.003906.007812c-19.289063-8.144531-46.769531 9.761719-64.3125 43.28125-19.230469 36.746094-19.230469 78.316407 0 92.855469l52.019531 39.324219-52.019531 99.386719c-19.230469 36.746093-19.230469 78.320312 0 92.859374.792969.597657 63.886719 37.015626 63.886719 37.015626 19.230468 14.539062 50.410156-3.460938 69.640625-40.207032l48.632812-92.917968 55.402344 32.851562c19.230469 14.539062 50.410156-3.460938 69.644531-40.207031 19.230469-36.746094 19.230469-78.316407 0-92.855469zm0 0" fill="#b5292a"/><path d="m270.109375 234.300781 52.019531-99.390625c19.230469-36.742187 19.230469-78.316406 0-92.855468-19.230468-14.539063-50.410156 3.464843-69.644531 40.207031l-52.015625 99.390625-52.019531-39.324219c-19.230469-14.539063-50.410157 3.460937-69.640625 40.207031-19.230469 36.746094-19.230469 78.316406 0 92.855469l52.015625 39.324219-52.015625 99.390625c-19.230469 36.742187-19.230469 78.316406 0 92.855469 19.230468 14.539062 50.410156-3.464844 69.640625-40.207032l52.019531-99.390625 52.015625 39.324219c19.230469 14.539062 50.410156-3.460938 69.644531-40.207031 19.230469-36.746094 19.230469-78.316407 0-92.855469zm0 0" fill="#e84c3d"/></svg>